<svg xmlns="http://www.w3.org/2000/svg" preserveAspectRatio="xMidYMid" width="253" height="40" viewBox="0 0 253 40"><defs><style>.cls-1{fill:#fff;fill-rule:evenodd}</style></defs><path d="M241.739 32.561v-5.049c-.882 3.165-3.139 5.477-6.696 5.477-4.729 0-8.579-4.32-8.579-10.822 0-6.928 4.181-11.421 9.372-11.421 3.18 0 5.021 1.454 5.903 4.021V5.314c0-3.123-.503-3.634-2.429-4.705V.524h11.966v27.373c0 2.824 0 3.21 1.718 4.578v.086h-11.255zm-.007-13.859c0-3.421-1.09-5.689-2.764-5.689-1.922 0-2.51 2.866-2.51 9.111 0 4.705.797 7.186 2.676 7.186 1.632 0 2.598-2.096 2.598-4.792v-5.816zM213.03 32.475c1.716-1.368 1.716-1.754 1.716-4.578V17.59c0-1.368-.713-2.395-1.965-2.395-1.424 0-2.388.984-2.388 4.319v8.383c0 2.824 0 3.21 1.717 4.578v.086h-12.975v-.086c1.719-1.368 1.719-1.754 1.719-4.578V15.965c0-3.123-.082-3.38-2.01-4.704v-.087h11.549v5.346c.964-3.721 3.682-5.774 7.198-5.774 4.896 0 6.697 3.679 6.697 7.4v9.751c0 2.824 0 3.21 1.716 4.578v.086H213.03v-.086zm-27.774 0c1.715-1.368 1.715-1.754 1.715-4.578V15.965c0-2.713-.067-3.263-1.344-4.228-1.062 1.062-1.477 1.827-2.548 4.057l-7.784 17.195h-.085l-5.73-13.431-6.74 13.431h-.082l-8.2-17.195c-.814-1.691-1.252-2.619-1.994-3.551h-4.927v13.346c0 1.839.756 2.994 2.342 2.994 1.801 0 3.015-1.669 3.559-4.535l.584.258c-.665 4.148-2.844 8.683-8.618 8.683-4.183 0-7.449-2.396-7.406-7.742l.126-13.004h-1.883v-.599c4.725-1.026 8.83-3.592 10.834-7.955h.462v7.485h16.627v.087c-.504.597-.754 1.026-.754 1.923 0 .856.25 1.54.587 2.268l3.18 6.543 1.84-3.55-1.127-2.651c-1.132-2.353-1.506-3.123-2.889-4.533v-.087h12.847v.087c-.835.597-1.256 1.153-1.256 2.053 0 .683.213 1.366.503 2.181l2.217 6.072 2.594-5.902c.209-.47.295-.985.295-1.454 0-1.24-.756-2.395-2.304-2.95v-.087h16.613v16.723c0 2.824 0 3.21 1.717 4.578v.086h-12.971v-.086zm6.486-22.711c-2.889 0-5.022-2.14-5.022-4.878 0-2.779 2.133-4.876 5.022-4.876 2.885 0 5.105 2.097 5.105 4.876 0 2.738-2.22 4.878-5.105 4.878zm-56.39 15.697c0 4.447-3.392 7.528-8.994 7.528-2.892 0-4.942-.746-6.572-.813-1.208-.051-1.676-.026-2.303.358l-.459-7.117.085-.239c2.677 4.62 5.647 7.126 9.249 7.126 1.836 0 3.049-.727 3.049-2.44 0-1.967-1.669-2.352-4.516-3.377-5.314-1.882-7.867-4.106-7.867-8.64 0-4.149 3.346-7.101 7.949-7.101 2.637 0 4.394.942 5.943.942 1.044 0 1.716-.212 2.512-.853v6.713h-.085c-2.007-3.808-5.605-6.117-8.37-6.117-1.507 0-2.595.684-2.595 2.053 0 1.882 1.552 2.224 5.189 3.55 5.317 1.924 7.785 3.893 7.785 8.427zm-24.384 7.542c-4.017 0-5.94-1.496-6.402-3.847a4.732 4.732 0 0 1-.086-.601c-.792 2.823-3.052 4.32-6.609 4.32-3.261 0-6.319-1.711-6.319-5.389 0-4.962 4.565-5.818 9.627-6.757l3.177-.6v-5.09c0-1.667-.459-3.507-2.259-3.507-1.382 0-2.3 1.284-2.3 3.079 0 1.968.711 2.823 2.049 2.823.293 0 .584-.042.921-.128-1.128 1.883-3.097 2.823-5.565 2.823-2.468 0-4.517-1.497-4.517-3.848 0-3.552 3.971-5.519 9.706-5.519 7.615 0 11.34 2.138 11.34 7.613 0 1.968-.046 4.492-.045 7.785.01 3.484.016 4.68 2.23 4.68-1.255 1.242-2.77 2.163-4.948 2.163zm-6.612-12.104l-1.17.299c-1.928.47-2.553 2.14-2.553 4.791 0 1.84.461 3.38 1.797 3.38 1.595 0 1.926-1.797 1.926-3.465v-5.005zM62.487 32.561v-.086c1.801-1.454 2.258-2.138 2.258-4.963V7.668c0-2.824-.457-3.51-2.258-4.963V2.62h21.3c1.755 0 2.76-.129 3.426-.429l1.425 8.812h-.082c-2.552-4.406-4.56-7.229-10.124-7.229h-3.56v12.534h2.68c3.389 0 4.938-.984 6.192-4.962h.086v11.206h-.086c-1.254-3.935-2.803-4.962-6.192-4.962h-2.68v13.816h4.101c6.027 0 7.991-3.894 10.504-8.042h.082l-1.336 9.197H62.487zM-.015 40.013l2.783-7.544c1.51-4.103 6.106-7.428 10.262-7.428h30.567l7.643 7.546H10.249c-4.157 0-8.75 3.325-10.264 7.426zm3.789-11.229l2.783-7.545c1.513-4.1 6.11-7.426 10.266-7.426h15.398l7.644 7.544H14.04c-4.156 0-8.753 3.326-10.266 7.427zm3.964-11.229l2.779-7.546c1.515-4.1 6.108-7.425 10.264-7.425h.064l7.644 7.544h-10.49c-4.157 0-8.749 3.326-10.261 7.427z" class="cls-1"/></svg>